<svg width="18" height="18" viewBox="0 0 18 18" fill="none" xmlns="http://www.w3.org/2000/svg">
<path d="M9.80938 1.95955L3.88656 7.85711H16.8565C17.1599 7.85711 17.4509 7.97752 17.6653 8.19166C17.8797 8.40578 18 8.69609 18 8.99868C18 9.30127 17.8797 9.59157 17.6653 9.8057C17.4509 10.0198 17.1599 10.1402 16.8565 10.1402H3.88656L9.80984 16.0383L9.81063 16.039C9.91778 16.1452 10.0028 16.2715 10.0608 16.4105C10.1188 16.5496 10.1487 16.6987 10.1487 16.8494C10.1487 17 10.1188 17.1491 10.0608 17.2882C10.0028 17.4273 9.91778 17.5535 9.81062 17.6597L9.80814 17.6622C9.70186 17.7692 9.57539 17.8542 9.436 17.9122C9.29662 17.9702 9.14709 18 8.99606 18C8.84503 18 8.6955 17.9702 8.55612 17.9122C8.41674 17.8542 8.29026 17.7692 8.18398 17.6622L0.325885 9.81381C0.223226 9.70589 0.142782 9.57895 0.0889181 9.4402L0.0856685 9.4323C-0.0286086 9.15448 -0.0285299 8.84292 0.0857473 8.56509L0.0888388 8.55713C0.142703 8.41838 0.223225 8.29147 0.325884 8.18355L8.18274 0.336426C8.39835 0.121077 8.6909 0 8.99606 0C9.30122 0 9.59377 0.121077 9.80938 0.336426C10.025 0.551757 10.146 0.843695 10.146 1.14799C10.146 1.45209 10.0247 1.74426 9.80938 1.95955Z" fill="#4D4D4D"/>
</svg>
