<svg width="28" height="28" viewBox="0 0 28 28" fill="none" xmlns="http://www.w3.org/2000/svg">
<path d="M6.22221 -6.10352e-05C2.786 -6.10352e-05 0 2.78594 0 6.22216V21.7777C0 25.2139 2.786 27.9999 6.22221 27.9999H21.7777C25.214 27.9999 28 25.2139 28 21.7777V6.22216C28 2.78594 25.214 -6.10352e-05 21.7777 -6.10352e-05H6.22221ZM20.2222 4.66661C21.9411 4.66661 23.3333 6.05883 23.3333 7.77772C23.3333 9.49661 21.9411 10.8888 20.2222 10.8888C18.5033 10.8888 17.1111 9.49661 17.1111 7.77772C17.1111 6.05883 18.5033 4.66661 20.2222 4.66661ZM8.55554 12.4444C9.46087 12.4459 10.836 13.8553 12.152 16.285C12.6747 17.2464 13.1429 18.3057 13.5629 19.3479C13.8149 19.9701 14.0093 20.4462 14.0964 20.7075C14.5211 21.9784 16.2446 22.1588 16.9166 20.9999C16.9835 20.8848 17.1049 20.6639 17.3055 20.3684C17.6415 19.8706 18.0242 19.3666 18.424 18.9093C19.4226 17.7644 20.3871 17.111 21 17.111C21.6206 17.1266 22.5789 17.7784 23.576 18.9093C23.9804 19.3682 24.3537 19.8706 24.6944 20.3684C24.8017 20.5239 24.8173 20.5971 24.8888 20.7075V21.7777C24.8888 23.4966 23.4966 24.8888 21.7777 24.8888H6.22221C4.50333 24.8888 3.11111 23.4966 3.11111 21.7777V20.4648C3.20911 20.1879 3.33978 19.8597 3.54823 19.3479C3.97289 18.3057 4.43331 17.2479 4.95908 16.285C6.28597 13.8506 7.65176 12.4428 8.55554 12.4444Z" fill="#959595"/>
</svg>
